<svg width="25" height="25" viewBox="0 0 18 18" fill="none" xmlns="http://www.w3.org/2000/svg" class="hover_img hover_img23  svg_img_t">
	<path d="M13.8 4L13.2 4L13.2 11.5263L13.8 11.5263C14.1183 11.5263 14.4235 11.4043 14.6485 11.1872C14.8736 10.97 15 10.6755 15 10.3684L15 5.1579C15 4.8508 14.8736 4.55629 14.6485 4.33914C14.4235 4.12199 14.1183 4 13.8 4ZM4.2 11.5263L8.4 11.5263L7.7268 13.4762C7.66673 13.6502 7.65037 13.8355 7.67906 14.0169C7.70775 14.1982 7.78067 14.3703 7.89181 14.5191C8.00296 14.6679 8.14915 14.7891 8.31835 14.8727C8.48755 14.9563 8.67491 15 8.865 15L9 15L12 11.8517L12 4L5.4 4L3.0528 8.97663L3 9.21053L3 10.3684C3 10.6755 3.12643 10.97 3.35147 11.1872C3.57652 11.4043 3.88174 11.5263 4.2 11.5263Z" fill="#1890FF"></path>
	</svg>