<svg width="20" height="20" viewBox="0 0 20 20" fill="none" xmlns="http://www.w3.org/2000/svg">
                                        <path d="M7.86694 9.33398C8.39444 9.33398 8.91009 9.17755 9.34869 8.88448C9.78728 8.5914 10.1291 8.17485 10.331 7.68749C10.5328 7.20014 10.5856 6.66387 10.4826 6.14651C10.3797 5.62916 10.1257 5.15395 9.75262 4.78098C9.37959 4.40801 8.90433 4.15404 8.38696 4.05119C7.86958 3.94834 7.33332 4.00122 6.846 4.20315C6.35868 4.40508 5.94219 4.74698 5.64919 5.18563C5.3562 5.62427 5.19986 6.13996 5.19995 6.66746C5.20069 7.37451 5.48193 8.05239 5.98194 8.55232C6.48195 9.05224 7.15988 9.33336 7.86694 9.33398Z" fill="#1B2738" fill-opacity="0.25"></path>
                                        <path d="M11.3556 11.5385C10.6798 10.8453 9.81271 10.3693 8.86506 10.1713C7.91742 9.97329 6.93226 10.0623 6.03543 10.4269C5.1386 10.7914 4.37081 11.4151 3.83013 12.2182C3.28945 13.0212 3.00044 13.9672 3 14.9353C3 15.0591 3.04917 15.1778 3.13668 15.2653C3.2242 15.3528 3.3429 15.402 3.46666 15.402H12.268C12.3917 15.402 12.5104 15.3528 12.5979 15.2653C12.6855 15.1778 12.7346 15.0591 12.7346 14.9353C12.7364 14.4405 12.66 13.9485 12.5083 13.4775C12.2823 12.7493 11.8874 12.0849 11.3556 11.5385Z" fill="#1B2738" fill-opacity="0.25"></path>
                                        <path d="M13.4999 9.56845C14.5953 9.56845 15.4832 8.68049 15.4832 7.58513C15.4832 6.48977 14.5953 5.60181 13.4999 5.60181C12.4046 5.60181 11.5166 6.48977 11.5166 7.58513C11.5166 8.68049 12.4046 9.56845 13.4999 9.56845Z" fill="#1B2738" fill-opacity="0.25"></path>
                                        <path d="M13.5 10.1128C12.8745 10.1151 12.261 10.2855 11.7239 10.6061C11.8251 10.6966 11.9273 10.7857 12.023 10.8837C12.6584 11.5368 13.1305 12.3309 13.4006 13.2012C13.4931 13.4877 13.5613 13.7815 13.6045 14.0794H16.5333C16.6571 14.0794 16.7758 14.0303 16.8633 13.9428C16.9508 13.8552 17 13.7365 17 13.6128C16.999 12.6848 16.6299 11.7952 15.9738 11.139C15.3176 10.4828 14.428 10.1138 13.5 10.1128Z" fill="#1B2738" fill-opacity="0.25"></path>
									</svg>