<svg width="20" height="20" viewBox="0 0 20 20" fill="none" xmlns="http://www.w3.org/2000/svg">
                                        <path d="M6 14H6.5V7.84211H6C5.73478 7.84211 5.48043 7.94192 5.29289 8.11958C5.10536 8.29725 5 8.53822 5 8.78947V13.0526C5 13.3039 5.10536 13.5449 5.29289 13.7225C5.48043 13.9002 5.73478 14 6 14ZM14 7.84211H10.5L11.061 6.24674C11.1111 6.10435 11.1247 5.95274 11.1008 5.80439C11.0769 5.65604 11.0161 5.51519 10.9235 5.39344C10.8309 5.27169 10.709 5.17254 10.568 5.10413C10.427 5.03573 10.2709 5.00004 10.1125 5H10L7.5 7.57589V14H13L14.956 9.92821L15 9.73684V8.78947C15 8.53822 14.8946 8.29725 14.7071 8.11958C14.5196 7.94192 14.2652 7.84211 14 7.84211Z" fill="#1B2738" fill-opacity="0.25"></path>
                                    </svg>