<svg width="20" height="20" viewBox="0 0 20 20" fill="none" xmlns="http://www.w3.org/2000/svg">
                                        <path fill-rule="evenodd" clip-rule="evenodd" d="M13.5803 4.00049H6.52648C5.859 4.00194 5.21927 4.26774 4.74729 4.73972C4.27531 5.2117 4.00951 5.85143 4.00806 6.51891V11.9139C4.00951 12.5814 4.27531 13.2212 4.74729 13.6931C5.21927 14.1651 5.859 14.4309 6.52648 14.4324H10.9351L12.9631 15.8817C13.0574 15.9492 13.1684 15.9895 13.284 15.9982C13.3996 16.007 13.5154 15.9838 13.6188 15.9313C13.7187 15.8769 13.8026 15.7975 13.8625 15.7009C13.9224 15.6043 13.9562 15.4938 13.9605 15.3802V14.4434C14.5301 14.439 15.0747 14.2093 15.4754 13.8045C15.8761 13.3997 16.1002 12.8527 16.0987 12.2832V6.51891C16.0987 5.85098 15.8333 5.21041 15.361 4.73812C14.8888 4.26582 14.2482 4.00049 13.5803 4.00049ZM10.4336 11.1094H7.28145V9.84741H10.4281L10.4336 11.1094ZM12.952 8.59096H7.28145V7.32899H12.952V8.59096Z" fill="#1B2738" fill-opacity="0.25"></path>
                                    </svg>